<svg width="40" height="38" viewBox="0 0 40 38" fill="none" xmlns="http://www.w3.org/2000/svg">
<rect x="0.828125" y="0.428223" width="39" height="37.1429" rx="18.5714" fill="white"/>
<path fill-rule="evenodd" clip-rule="evenodd" d="M18.3999 16.8343H21.1854V18.1557C21.5866 17.3957 22.6156 16.7129 24.1614 16.7129C27.1246 16.7129 27.8281 18.2257 27.8281 21.0014V26.1422H24.8281V21.6336C24.8281 20.0529 24.4269 19.1614 23.4054 19.1614C21.9886 19.1614 21.3999 20.1222 21.3999 21.6329V26.1422H18.3999V16.8343ZM13.2556 26.0207H16.2556V16.7129H13.2556V26.0207ZM16.6854 13.6779C16.6855 13.9174 16.6356 14.1545 16.5387 14.3754C16.4417 14.5964 16.2996 14.7968 16.1206 14.965C15.7579 15.3083 15.267 15.5005 14.7556 15.4993C14.2452 15.499 13.7554 15.3073 13.3921 14.9657C13.2138 14.797 13.0722 14.5963 12.9754 14.3753C12.8786 14.1543 12.8286 13.9173 12.8281 13.6779C12.8281 13.1943 13.0306 12.7314 13.3929 12.39C13.7558 12.048 14.2458 11.8562 14.7564 11.8564C15.2679 11.8564 15.7584 12.0486 16.1206 12.39C16.4821 12.7314 16.6854 13.1943 16.6854 13.6779Z" fill="#080808"/>
</svg>
