<svg width="40" height="38" viewBox="0 0 40 38" fill="none" xmlns="http://www.w3.org/2000/svg">
<rect x="0.828125" y="0.356934" width="39" height="37.2857" rx="18.6429" fill="white"/>
<g clip-path="url(#clip0_2128_39150)">
<path d="M27.6053 14.7955C27.0834 15.0157 26.5228 15.1645 25.9334 15.2318C26.5416 14.8852 26.9965 14.3398 27.2134 13.6973C26.6421 14.0205 26.0168 14.248 25.3647 14.3699C24.9262 13.924 24.3454 13.6284 23.7124 13.5291C23.0794 13.4298 22.4297 13.5323 21.8642 13.8206C21.2987 14.109 20.8489 14.5671 20.5848 15.1239C20.3206 15.6806 20.2569 16.3048 20.4034 16.8996C19.2457 16.8443 18.1132 16.5577 17.0793 16.0585C16.0455 15.5593 15.1333 14.8587 14.4022 14.002C14.1522 14.4127 14.0084 14.8889 14.0084 15.3961C14.0082 15.8526 14.1262 16.3022 14.3521 16.7048C14.578 17.1075 14.9048 17.4509 15.3034 17.7044C14.8411 17.6904 14.389 17.5714 13.9847 17.3574V17.3931C13.9846 18.0334 14.2172 18.654 14.6429 19.1496C15.0686 19.6452 15.6613 19.9853 16.3203 20.1121C15.8914 20.2227 15.4418 20.239 15.0053 20.1598C15.1912 20.7107 15.5534 21.1925 16.0412 21.5377C16.5289 21.8829 17.1178 22.0742 17.7253 22.0848C16.694 22.8558 15.4202 23.2741 14.1091 23.2723C13.8768 23.2723 13.6447 23.2594 13.4141 23.2336C14.745 24.0486 16.2943 24.4811 17.8766 24.4794C23.2328 24.4794 26.1609 20.2544 26.1609 16.5901C26.1609 16.4711 26.1578 16.3508 26.1522 16.2318C26.7217 15.8395 27.2134 15.3537 27.6041 14.7973L27.6053 14.7955Z" fill="#080808"/>
</g>
<defs>
<clipPath id="clip0_2128_39150">
<rect width="15" height="14.2857" fill="white" transform="translate(12.8281 11.8569)"/>
</clipPath>
</defs>
</svg>
